<?xml version="1.0" encoding="UTF-8"?>
<svg width="173px" height="41px" viewBox="0 0 173 41" version="1.1" xmlns="http://www.w3.org/2000/svg" xmlns:xlink="http://www.w3.org/1999/xlink">
    <!-- Generator: Sketch 52.5 (67469) - http://www.bohemiancoding.com/sketch -->
    <title>Logotype</title>
    <desc>Created with Sketch.</desc>
    <g id="HOMEPAGE" stroke="none" stroke-width="1" fill="none" fill-rule="evenodd">
        <g id="Homepage-/-MENU-1" transform="translate(-100.000000, -19.000000)">
            <g id="Logotype-/-Classic" transform="translate(100.000000, 19.000000)">
                <path d="M19.6907364,25.8767299 C21.1745204,25.8767299 22.3771793,27.0902172 22.3771793,28.5869763 C22.3771793,30.0837354 21.1745204,31.2969111 19.6907364,31.2969111 C18.2069525,31.2969111 17.0042936,30.0837354 17.0042936,28.5869763 C17.0042936,27.0902172 18.2069525,25.8767299 19.6907364,25.8767299" id="Fill-1" fill="#FF6633"></path>
                <path d="M148.368384,9.59543162 C150.175925,8.26601788 152.398048,7.48195671 154.806146,7.48195671 C160.850643,7.48195671 165.750868,12.4250324 165.750868,18.5223857 C165.750868,22.3722631 163.796276,25.7624863 160.835196,27.7382207 L160.834887,23.4074981 L156.09963,23.4074981 C156.09963,23.4074981 155.593605,25.8335379 153.580626,25.8335379 L152.004782,25.8335379 L152.004782,16.7358107 C152.004782,15.7918833 152.771543,15.0421014 153.699564,14.9947336 L153.700182,9.59543162 L148.368384,9.59543162 Z" id="Fill-18" fill="#FF6633"></path>
                <polygon id="Fill-6" fill="#0066CC" points="30.1742275 11.2390931 30.1742275 26.9268608 37.8467775 26.9268608 37.8467775 31.0556471 25.1902829 31.0556471 25.1902829 11.2390931"></polygon>
                <path d="M54.8918496,26.1049677 L54.8918496,26.3393135 C54.8918496,29.9436265 52.5770479,31.2244259 47.4673693,31.2244259 C41.1550318,31.2244259 39.2409104,29.7083458 39.2409104,23.105217 C39.2409104,16.8392718 41.4163854,15.1545998 47.0997443,15.1545998 C52.7602425,15.1545998 54.8918496,16.704336 54.8918496,22.5994414 L54.8918496,23.9808974 L43.6493211,23.9808974 L43.6493211,24.6209855 C43.6493211,27.3162737 44.7423104,28.0233622 47.2335104,28.0233622 C49.4114568,28.0233622 50.461505,27.6515876 50.5501675,26.1049677 L54.8918496,26.1049677 Z M43.6493211,21.3865773 L50.5501675,21.3865773 L50.5501675,20.8480806 C50.5171121,18.7928805 49.639755,18.4223524 47.1015979,18.4223524 C44.6635336,18.4223524 43.6493211,18.8112667 43.6493211,21.3865773 Z" id="Fill-8" fill="#0066CC"></path>
                <polygon id="Fill-10" fill="#0066CC" points="76.2991786 31.0558029 80.7412625 31.0558029 80.7412625 11.2392489 76.2991786 11.2392489"></polygon>
                <path d="M65.7631696,27.7806024 C67.9636679,27.7806024 68.8787143,27.3022503 68.9250536,25.3283857 L73.2429482,25.3283857 C73.2268839,29.9370823 71.1595339,31.2244259 65.4950196,31.2244259 C59.8400821,31.2244259 57.8283393,29.5023584 57.8283393,23.1890454 C57.8283393,16.8760442 59.8397732,15.1545998 65.4950196,15.1545998 C71.1391446,15.1545998 73.2136,16.4329063 73.2426393,21.0007793 L68.9235089,21.0007793 C68.866975,19.0686731 67.9451321,18.5981117 65.7631696,18.5981117 C63.11905,18.5981117 62.3393143,19.0892407 62.3393143,23.1896687 C62.3393143,27.2897851 63.1193589,27.7806024 65.7631696,27.7806024" id="Fill-12" fill="#0066CC"></path>
                <path d="M99.7039779,26.1049677 L99.7039779,26.3393135 C99.7039779,29.9436265 97.3891761,31.2244259 92.2794975,31.2244259 C85.96716,31.2244259 84.0527296,29.7083458 84.0527296,23.105217 C84.0527296,16.8392718 86.2285136,15.1545998 91.9115636,15.1545998 C97.5723707,15.1545998 99.7039779,16.704336 99.7039779,22.5994414 L99.7039779,23.9808974 L88.4611404,23.9808974 L88.4611404,24.6209855 C88.4611404,27.3162737 89.5544386,28.0233622 92.0453296,28.0233622 C94.223585,28.0233622 95.2733243,27.6515876 95.3619868,26.1049677 L99.7039779,26.1049677 Z M88.4611404,21.3865773 L95.3619868,21.3865773 L95.3619868,20.8480806 C95.3289314,18.7928805 94.4515743,18.4223524 91.9134171,18.4223524 C89.4756618,18.4223524 88.4611404,18.8112667 88.4611404,21.3865773 Z" id="Fill-13" fill="#0066CC"></path>
                <path d="M121.322336,27.7806024 C123.522834,27.7806024 124.437881,27.3019387 124.483911,25.3283857 L128.802423,25.3283857 C128.78605,29.936459 126.7187,31.2238027 121.054495,31.2238027 C115.399248,31.2238027 113.387814,29.5017351 113.387814,23.1890454 C113.387814,16.8760442 115.398939,15.1545998 121.054495,15.1545998 C126.698311,15.1545998 128.772766,16.4329063 128.801806,21.0007793 L124.482675,21.0007793 C124.426141,19.0686731 123.503989,18.5981117 121.322336,18.5981117 C118.678216,18.5981117 117.898172,19.0892407 117.898172,23.1896687 C117.898172,27.2894735 118.678216,27.7806024 121.322336,27.7806024" id="Fill-14" fill="#0066CC"></path>
                <path d="M112.277741,19.2224937 C112.277741,19.2224937 111.185679,19.2097169 111.05562,19.2097169 C108.616938,19.2097169 107.441156,20.6447732 107.441156,23.7451804 L107.441156,31.0544629 L102.998454,31.0544629 L102.998454,15.4352539 L107.441156,15.4352539 L107.441156,17.7621953 C108.514682,15.9955647 109.891268,15.1700567 111.743604,15.1544752 L112.277741,15.1544752 L112.277741,19.2224937 Z" id="Fill-15" fill="#0066CC"></path>
                <path d="M143.692224,13.9442599 L143.692224,11.2389996 L152.082416,11.2389996 L152.082416,13.9495577 C151.145435,14.2041594 150.387324,15.0128393 150.387324,16.1783357 L150.387324,27.465264 L153.580719,27.465264 C155.191782,27.465264 156.575164,26.4714758 157.156258,25.0582336 L159.217739,25.0470149 L159.217739,31.0546187 L143.692224,31.0546187 L143.692224,27.5584414 C144.662878,27.3150583 145.391023,26.3916985 145.391023,25.3630077 L145.391023,16.2503222 C145.391023,14.9642251 144.603873,14.1810988 143.692224,13.9442599" id="Fill-16" fill="#0066CC"></path>
                <path d="M133.030852,20.0322955 C133.030852,8.96849431 141.921817,-0.000218141026 152.889708,-0.000218141026 C163.85729,-0.000218141026 172.748563,8.96849431 172.748563,20.0322955 C172.748563,31.0957851 163.85729,40.0651208 152.889708,40.0651208 C141.921817,40.0651208 133.030852,31.0957851 133.030852,20.0322955 M137.152886,20.0322955 C137.152886,28.7993833 144.198311,35.9067296 152.889708,35.9067296 C161.581104,35.9067296 168.627147,28.7993833 168.627147,20.0322955 C168.627147,11.2648961 161.581104,4.15754981 152.889708,4.15754981 C144.198311,4.15754981 137.152886,11.2648961 137.152886,20.0322955" id="Fill-17" fill="#0066CC"></path>
                <polygon id="Fill-3" fill="#0066CC" points="4.97183464 15.3678794 4.97183464 19.0843793 13.1000543 19.0843793 13.1000543 22.8011907 4.97183464 22.8011907 4.97183464 26.9268608 14.35554 26.9268608 14.35554 31.0556471 -6.17857143e-05 31.0556471 -6.17857143e-05 11.2390931 14.2205382 11.2390931 14.2205382 15.3678794"></polygon>
            </g>
        </g>
    </g>
</svg>